# xmcd
#
# Track frame offsets:
#	150
#	2189
#	24984
#	48088
#	104619
#	133795
#	146136
#	166288
#	184067
#	214001
#
# Disc length: 3302 seconds
#
# Revision: 1
# Processed by: cddbd v1.5PL3 Copyright (c) Steve Scherf et al.
# Submitted via: audiograbber 1.82.01
#
DISCID=880ce40a
DTITLE=Jimi Hendrix - 1969-01-13 - Sporthalle, Koln, Germany
DYEAR=1900
DGENRE=
TTITLE0=Jimi Hendrix - Intro
TTITLE1=Jimi Hendrix - Come On Part 1)
TTITLE2=Jimi Hendrix - Foxy Lady
TTITLE3=Jimi Hendrix - Red House
TTITLE4=Jimi Hendrix - Voodoo Chile Slight Return)
TTITLE5=Jimi Hendrix - Fire
TTITLE6=Jimi Hendrix - Spanish Castle Magic
TTITLE7=Jimi Hendrix - Hey Joe
TTITLE8=Jimi Hendrix - Sunshine Of Your Love
TTITLE9=Jimi Hendrix - Star Spangled Banner-Purple Haze
EXTD=
EXTT0=
EXTT1=
EXTT2=
EXTT3=
EXTT4=
EXTT5=
EXTT6=
EXTT7=
EXTT8=
EXTT9=
PLAYORDER=
